<svg xmlns="http://www.w3.org/2000/svg" xmlns:xlink="http://www.w3.org/1999/xlink" viewBox="0,0,256,256" width="30px" height="30px" fill-rule="nonzero"><g fill="#ffffff" fill-rule="nonzero" stroke="none" stroke-width="1" stroke-linecap="butt" stroke-linejoin="miter" stroke-miterlimit="10" stroke-dasharray="" stroke-dashoffset="0" font-family="none" font-weight="none" font-size="none" text-anchor="none" style="mix-blend-mode: normal"><g transform="scale(8.53333,8.53333)"><path d="M6,4c-1.105,0 -2,0.895 -2,2v18c0,1.105 0.895,2 2,2h18c1.105,0 2,-0.895 2,-2v-18c0,-1.105 -0.895,-2 -2,-2zM15.00391,7.66602c4.717,0 8.55469,3.11436 8.55469,6.94336c0,1.533 -0.59398,2.91444 -1.83398,4.27344c-1.795,2.066 -5.8077,4.5818 -6.7207,4.9668c-0.912,0.384 -0.77819,-0.24494 -0.74219,-0.46094c0.022,-0.128 0.12305,-0.73242 0.12305,-0.73242c0.029,-0.219 0.0577,-0.55644 -0.0293,-0.77344c-0.097,-0.237 -0.47491,-0.36188 -0.75391,-0.42187c-4.112,-0.544 -7.1543,-3.41956 -7.1543,-6.85156c0,-3.828 3.83964,-6.94336 8.55664,-6.94336zM12.62695,12.91016c-0.251,0 -0.45508,0.1975 -0.45508,0.4375v3.30469c0,0.242 0.20408,0.4375 0.45508,0.4375c0.251,0 0.45508,-0.1965 0.45508,-0.4375v-3.30469c0,-0.24 -0.20408,-0.4375 -0.45508,-0.4375zM14.5625,12.91016c-0.045,0 -0.09172,0.00549 -0.13672,0.02149c-0.177,0.06 -0.29687,0.22606 -0.29687,0.41406v3.30469c0,0.242 0.19359,0.43945 0.43359,0.43945c0.24,0 0.43359,-0.19945 0.43359,-0.43945v-2.04492l1.68359,2.30859c0.081,0.11 0.2097,0.17578 0.3457,0.17578c0.047,0 0.09272,-0.00744 0.13672,-0.02344c0.178,-0.06 0.29883,-0.22606 0.29883,-0.41406h-0.00391v-3.30469c0,-0.24 -0.19364,-0.4375 -0.43164,-0.4375c-0.238,0 -0.43359,0.1975 -0.43359,0.4375v2.04492l-1.68359,-2.30664c-0.081,-0.11 -0.2097,-0.17578 -0.3457,-0.17578zM18.92969,12.91016c-0.251,0 -0.45508,0.1975 -0.45508,0.4375v1.65039v0.00195v1.65039c0,0.242 0.20408,0.43945 0.45508,0.43945h1.72461c0.252,0 0.45703,-0.1975 0.45703,-0.4375c0,-0.24 -0.20603,-0.43555 -0.45703,-0.43555h-1.26953v-0.78125h1.26953c0.252,0 0.45703,-0.19555 0.45703,-0.43555c0,-0.242 -0.20603,-0.4375 -0.45703,-0.4375l-1.26953,0.00195v-0.78125h1.26953c0.252,0 0.45703,-0.19455 0.45703,-0.43555c0,-0.24 -0.20603,-0.4375 -0.45703,-0.4375zM9.34375,12.91211c-0.251,0 -0.45508,0.19455 -0.45508,0.43555v3.30469c0,0.242 0.20408,0.4375 0.45508,0.4375h1.72461c0.252,0 0.45408,-0.19655 0.45508,-0.43555c0,-0.24 -0.20408,-0.43555 -0.45508,-0.43555h-1.26953v-2.87109c0,-0.24 -0.20408,-0.43555 -0.45508,-0.43555z"></path></g></g></svg>